<?xml version="1.0" standalone="no"?>
<!DOCTYPE svg PUBLIC "-//W3C//DTD SVG 1.1//EN" "http://www.w3.org/Graphics/SVG/1.1/DTD/svg11.dtd" >
<svg xmlns="http://www.w3.org/2000/svg">
<metadata>
This is a custom SVG font generated by IcoMoon.
<iconset grid="32"></iconset>
</metadata>
<defs>
<font id="icomoon" horiz-adv-x="1024" >
<font-face units-per-em="1024" ascent="960" descent="-64" />
<missing-glyph horiz-adv-x="1024" />
<glyph class="hidden" unicode="&#xf000;" d="M0,960L 1024 -64L0 -64 z" horiz-adv-x="0" />
<glyph unicode="&#xe000;" d="M 248.301,242.742L 1164.892,242.742L 705.948,723.26 z" horiz-adv-x="1435.91"  />
<glyph unicode="&#xe001;" d="M 1164.889,723.252L 248.297,723.252L 707.241,242.738 z" horiz-adv-x="1435.91"  />
<glyph unicode="&#xe002;" d="M-4.693,690.802L 40.192,690.802L 40.192,555.52L 212.594,555.52L 213.476,555.52L 386.361,555.52L 386.361,690.802L 431.388,690.802L 431.388,769.28L 213.476,959.232L 213.476,960L 213.020,959.602L 212.594,960L 212.594,959.232L-4.693,769.28 zM 430.791,205.198L 385.906,205.198L 385.906,340.48L 213.504,340.48L 212.594,340.48L 39.737,340.48L 39.737,205.198L-5.291,205.198L-5.291,126.692L 212.594-63.232L 212.594-64L 213.049-63.602L 213.504-64L 213.504-63.232L 430.791,126.692 z" horiz-adv-x="426.667"  />
<glyph unicode="&#xe003;" d="M-24.256,115.072L 152.256,115.072L 152.256-64L-24.256-64zM-24.256,960L 152.256,960L 152.256,178.112L-24.256,178.112z" horiz-adv-x="128"  />
<glyph unicode="&#xe004;" d="M 22.184,923.707L 22.184,75.708L 496.196,545.367 zM 1840.036,923.707L 1840.036,75.708L 1361.632,545.367 zM 115.695,941.132L 1716.063,941.132L 914.741,325.739 zM0-43.428L 1843.949-43.428L 1293.809,508.887L 926.323,224.032L 554.489,506.712 z" horiz-adv-x="1856.272"  />
<glyph unicode="&#xe005;" d="M 874.806-64.031L0,810.806L 149.194,960L 1024,85.163zM 1024.031,810.775L 149.194-64.031L0,85.163L 874.837,959.969z"  />
<glyph unicode="&#xe006;" d="M 508.298,960L-3.702,448L 479.311-64L 601.679,58.368L 260.372,438.351L 633.895,834.402 z" horiz-adv-x="630.154"  />
<glyph unicode="&#xe007;" d="M0,761.92L 832-70.080L 1664,714.816L 1465.152,913.792L 847.68,359.040L 204.096,966.016 z" horiz-adv-x="1664"  />
<glyph unicode="&#xe008;" d="M 1097.143,616.375L 984.21,616.375L 984.21,956.782L 550.4,956.782L 548.206,956.782L 113.225,956.782L 113.225,616.375L0,616.375L0,419.035L 548.206-58.953L 548.206-60.855L 549.376-59.904L 550.4-60.855L 550.4-58.953L 1097.143,419.035 z" horiz-adv-x="1097.143"  />
<glyph unicode="&#xe009;" d="M 856.545,908.134c0,0-35.041,47.811-76.145,6.728l-94.075-98.109l 197.233-192.369
		l 91.945,91.525c0,0, 38.287,29.768-1.403,69.427L 856.545,908.134zM 646.175,784.261L 138.547,281.078l 213.77-183.921l 502.692,489.38L 646.175,784.261zM 52.879,54.6l-25.692-88.535l 105.503,14.623L 52.879,54.6zM 114.278,247.644l-42.547-140.288l 122.173-103.352l 130.755,67.185L 114.278,247.644z"  />
<glyph unicode="&#xe00a;" d="M0,967.168L 1204.706,967.168L 1204.706,761.736L0,761.736zM0,550.731L 1204.706,550.731L 1204.706,345.299L0,345.299zM0,134.295L 1204.706,134.295L 1204.706-71.138L0-71.138z" horiz-adv-x="1204.706"  />
<glyph unicode="&#xe00b;" d="M 430.163,962.186C 192.623,962.186,0,769.591,0,532.023S 192.623,101.888, 430.163,101.888c 237.54,0, 430.163,192.595, 430.163,430.163S 667.703,962.186, 430.163,962.186z
				 M 434.702,206.557c-177.207,0-320.899,143.72-320.899,320.927s 143.72,320.899, 320.899,320.899s 320.899-143.664, 320.899-320.899S 611.909,206.557, 434.702,206.557
				zM 1089.038-17.892c-18.764-24.825-37.584-38.912-56.957-44.89c-19.401-5.95-39.299-3.819-60.25,3.875
		c-20.95,7.638-42.897,20.812-66.422,36.864s-48.543,34.982-75.61,54.217c-27.067,19.235-51.062,40.019-71.32,61.163
		c-20.231,21.172-36.726,42.648-48.709,63.294c-11.984,20.646-14.281,18.46-16.661,36.172c 15.969,15.222, 38.497,33.211, 47.215,42.842
		c 8.718,12.288, 33.598,33.377, 38.801,49.927c 17.491,3.598-3.376,1.578, 20.065-2.961c 23.441-4.539, 49.18-13.008, 75.804-25.13
		c 26.652-12.122, 54.161-27.952, 81.256-47.159c 27.067-19.207, 52.086-38.801, 73.617-58.506c 21.532-19.705, 39.521-39.41, 52.584-58.894
		c 13.063-19.511, 21.089-38.663, 22.666-57.261C 1106.75,17.117, 1101.852-0.872, 1089.038-17.892z" horiz-adv-x="1107.027"  />
<glyph unicode="&#xe00d;" d="M 22.246,600.008L 800.148,740.89L 1646.091,459.127 		zM 437.474,425.758L 437.474,177.363L 688.343,136.582L 1290.181,177.363L 1290.181,388.686L 685.872,363.746 		z" horiz-adv-x="1680.696"  />
<glyph unicode="&#xe00e;" d="M 24.018-53.865L 70.436-53.865L 70.436,466.013L 683.15,466.013L 475.829,701.185L 692.434,936.374L 23.457,935.245 z" horiz-adv-x="702.944"  />
<glyph unicode="&#xe00f;" d="M 1002.975,547.502c 128.065-19.882, 263.355-55.523, 402.472-113.129c0,0-240.226,299.982-631.792,290.713
			C 386.792,715.93, 52.582,532.802, 22.824,420.635c0,0, 234.835,119.095, 586.466,143.326c-51.035-34.997-82.863-84.195-82.863-138.75
			c0-106.194, 120.418-192.282, 268.97-192.282c 148.555,0, 268.973,86.088, 268.973,192.282C 1064.372,471.664, 1041.33,514.267, 1002.975,547.502z" horiz-adv-x="1425.508"  />
<glyph unicode="&#xe010;" d="M 512,780.256l-152.512-152.512L 0,268.258l 152.51-152.512
			l 359.49,359.49l 359.488-359.49l 152.512,152.512L 664.51,627.748L 512,780.256z"  />
<glyph unicode="&#xe011;" d="M 844.254,447.998l-152.512,152.512L 332.254,959.998l-152.512-152.51
			l 359.49-359.49L 179.742,88.508l 152.512-152.512l 359.492,359.49L 844.254,447.998z"  />
<glyph unicode="&#xe012;" d="M 179.744,448  m0,0, 152.51-152.51 359.49-359.49 152.51,152.51 L 484.766,448 844.254,807.488 691.744,960 332.256,600.51 179.744,448 z"  />
<glyph unicode="&#xe013;" d="M 512,115.744l 152.512,152.512l 359.488,359.488l-152.51,152.512
			L 512,420.764L 152.51,780.256l-152.51-152.512l 359.49-359.49L 512,115.744z"  />
<glyph unicode="&#xe014;" d="M 578.752,56.832L 447.040-77.632L0,360.512L 131.712,494.912zM 914.496,393.344L 449.92-80.64L 315.456,51.072L 1209.536,963.264L 1344,831.68L 914.496,393.344 	z" horiz-adv-x="1344"  />
<glyph unicode="&#xe015;" d="M 15.111-22.657L 1479.348-22.657L 1479.348,268.869L 1777.498,76.731L 1850.377,76.731L 1850.377,779.033L 1790.745,779.033L 1481.557,580.267L 1481.557,933.63L 12.906,933.63 z" horiz-adv-x="1877.333"  />
<glyph unicode="&#xe016;" d="M 1664,134.016L 832,966.016L0,181.12L 198.848-17.728L 816.32,536.832L 1459.904-70.080 z" horiz-adv-x="1664"  />
<glyph unicode="&#xe017;" d="M 121.895-64L 633.895,448L 150.882,960L 28.475,837.632L 369.822,457.649L-3.702,61.598 z" horiz-adv-x="630.154"  />
<glyph unicode="&#xe00c;" d="M0,279.479L 112.933,279.479L 112.933-60.855L 546.743-60.855L 548.937-60.855L 983.918-60.855L 983.918,279.479L 1097.143,279.479L 1097.143,476.891L 548.937,954.88L 548.937,956.782L 547.767,955.758L 546.743,956.782L 546.743,954.88L0,476.891 z" horiz-adv-x="1097.143"  />
<glyph unicode="&#x20;" horiz-adv-x="512" />
</font>
</defs>
</svg>
